<svg width="68" height="64" viewBox="0 0 68 64" fill="none" xmlns="http://www.w3.org/2000/svg">
<g id="Group 13">
<path id="Vector" d="M67.5748 34.7567L58.2033 5.2561C57.1637 2.58903 54.4494 0.719971 51.5986 0.719971L16.3333 0.756722C13.5244 0.756722 10.7471 2.67303 9.73384 5.30336L0.420063 34.8302C-0.0262006 35.98 -0.104953 37.2243 0.126054 38.4161C0.351811 39.8336 1.06058 41.1672 2.14736 42.1122C2.45187 42.3957 2.78263 42.6477 3.13964 42.863L30.1622 62.0628C31.2542 62.7295 32.6245 63.0971 34.0211 63.0971C35.4176 63.0971 36.7931 62.7295 37.8904 62.0575L64.8762 42.8C65.2332 42.5847 65.564 42.3274 65.8632 42.0439C66.9658 41.0832 67.6798 39.7234 67.8898 38.2796C68.0998 37.1088 68.0158 35.8855 67.5748 34.7567Z" fill="#7B868C"/>
<g id="Group">
<path id="Vector_2" d="M52.7693 53.0535H53.7616V53.2372H53.3731V54.2768H53.1578V53.2372H52.7693V53.0535Z" fill="#94A5AB"/>
<path id="Vector_3" d="M53.9978 53.0535H54.3023L54.6436 54.0142L54.9744 53.0535H55.2736V54.282H55.0689V53.337L54.7276 54.282H54.5491L54.2078 53.337V54.282H54.0031V53.0535H53.9978Z" fill="#94A5AB"/>
</g>
<g id="Group_2">
<path id="Vector_4" d="M64.4981 36.5261L54.8221 7.58721C54.4126 6.51618 53.1736 5.6394 52.0553 5.6394L33.622 5.6499C33.622 5.6499 33.6325 5.65515 33.6377 5.6604H33.7427V5.76016C34 6.02267 34.1312 6.37968 34.147 6.76819C34.147 6.84694 34.1627 6.92569 34.1785 7.00444C34.5618 6.83119 34.945 6.69469 35.3755 6.77869C35.7955 6.86269 37.0136 7.2617 37.7066 8.32748C37.7066 8.32748 38.3524 8.905 37.5438 10.6271C37.4703 10.7846 37.3916 10.9158 37.3076 11.0313C37.2918 11.0733 37.2866 11.0996 37.2866 11.0996C37.2866 11.0996 37.5754 11.0103 37.6226 11.2203C37.6646 11.4356 37.3968 11.9343 37.1973 12.1758C36.9978 12.4121 36.8876 12.6851 36.7616 12.8111C36.6356 12.9371 36.4571 12.9109 36.4571 12.9109C36.4466 13.0526 36.2891 13.1996 36.0318 13.7194C35.9373 13.9136 35.8585 14.0607 35.8008 14.1709C35.9268 14.0869 36.0528 14.0187 36.1106 14.0187C36.1631 14.0187 36.2366 14.0712 36.3048 14.1447C37.2498 13.8034 38.2894 13.8349 38.8301 13.7666C39.3972 13.6931 40.1322 13.6616 41.282 12.9266C42.4317 12.1968 42.353 12.1496 43.886 11.7821C45.4191 11.4146 46.4009 10.9053 46.6844 10.7531C46.9731 10.6061 47.0991 10.2123 47.2566 9.71352C47.4089 9.21476 47.3564 9.31451 47.4666 8.83675C47.5769 8.35898 47.6609 8.20673 47.8131 8.24873C47.9444 8.28548 47.8447 8.96275 47.7816 9.19901C47.7081 9.46677 47.7186 9.94453 47.7186 9.94453C47.7186 9.94453 47.8236 9.98653 47.9812 9.69777C48.1439 9.39851 48.2017 9.21476 48.3224 9.00475C48.4379 8.79475 48.4484 8.8105 48.5797 8.56374C48.7109 8.31698 48.8317 7.68696 49.0627 7.77097C49.2779 7.84972 49.1152 8.31698 48.9997 8.63724C48.8789 8.9575 48.4537 9.84478 48.4852 9.83428C48.5797 9.80278 48.7057 9.49302 48.9104 9.26201C49.1152 9.031 49.1782 8.8 49.3672 8.37473C49.5614 7.95472 49.8922 8.00722 49.866 8.24348C49.845 8.41674 49.551 9.25151 49.3724 9.50352C49.1939 9.75553 48.9787 10.207 48.9787 10.2175C48.9944 10.2543 49.0679 10.2543 49.2832 9.97603C49.593 9.57702 49.6612 9.64527 49.7977 9.42477C49.9342 9.20426 50.181 8.92075 50.3122 8.968C50.5695 9.0625 50.2755 9.57702 50.0025 9.92878C49.7295 10.2805 49.2884 10.6848 49.1729 11.2308C49.0574 11.7768 49.698 11.5458 50.1337 11.4828C50.5642 11.4198 50.8057 11.5458 50.8267 11.7243C50.8425 11.8661 50.4907 12.2073 49.8922 12.1601C49.2937 12.1128 48.9052 12.3071 48.2332 12.3964C47.5611 12.4856 47.2199 11.9133 46.2224 12.5644C45.2248 13.2154 44.4058 13.6774 43.4975 14.3757C42.9358 14.8062 42.9305 14.6749 41.9907 15.0477C41.6127 15.1947 41.009 15.3784 40.3789 15.5937C40.4209 15.7197 40.4682 15.8405 40.4367 15.8615C40.3212 15.9507 40.1584 15.935 39.6754 15.9927C39.3709 16.0295 38.9719 16.1555 38.7146 16.2395C38.4154 16.3865 38.1686 16.544 38.0111 16.7067C37.5018 17.2265 37.1028 17.342 36.9296 18.266C36.8823 18.7018 36.9558 19.2426 36.9558 19.2426C37.8011 22.1406 36.5568 22.1564 36.2943 22.8862C36.0266 23.6159 36.1578 24.2355 35.4018 25.3695C34.441 26.808 34.063 28.2308 33.9055 29.2388C33.8477 29.7166 33.8267 30.3046 33.9685 30.8506C34.0735 31.2549 33.811 31.0922 33.8162 31.3389C33.832 31.4072 33.8425 31.4807 33.8582 31.5542C33.937 31.8114 34.231 32.725 34.441 33.2237C34.441 33.229 34.4515 33.2395 34.4515 33.2447C34.504 33.3287 34.5618 33.4442 34.63 33.5702C35.1078 34.258 36.2943 36.7308 36.1893 36.8148C36.1683 36.8306 36.1368 36.8568 36.0896 36.8831C36.2156 37.4553 36.3888 38.3111 36.3678 38.6524C36.3416 39.1196 36.3678 39.8809 36.7721 40.9782C37.1763 42.0702 36.5148 43.1045 36.1368 43.5193C35.7588 43.934 35.9373 43.9918 35.2968 45.5248C34.6615 47.0631 33.3227 48.9637 32.7767 49.893C32.2622 50.775 31.0232 52.434 31.5272 53.0168C31.6059 52.98 31.6794 52.938 31.7214 52.9433C31.7897 52.9538 31.8789 53.0063 31.9314 53.1743C31.9629 53.2793 32.0732 53.4106 32.1519 53.4946C32.3829 53.7151 32.5404 53.9356 33.4277 54.4868C34.7613 55.3216 35.575 55.8519 35.0395 56.4661C34.6983 56.8547 32.866 56.6236 32.5089 56.4294C32.1519 56.2404 30.9077 55.3006 29.5321 55.2901C29.3799 55.2901 29.2329 55.2796 29.0911 55.2691C29.0911 55.2691 28.7866 55.2849 28.3613 55.1641L32.2884 57.7262C32.7662 58.0202 33.391 58.1724 34.021 58.1724C34.651 58.1724 35.281 58.0202 35.7588 57.7262L63.5059 39.5554C64.4614 38.9569 64.9077 37.5918 64.4981 36.5208V36.5261Z" fill="url(#paint0_linear_535_2)"/>
<path id="Vector_5" d="M27.2378 54.1088C27.3008 53.5103 27.8311 52.8593 27.9151 52.686C27.9991 52.497 28.2878 52.3973 28.2878 52.3973C28.2878 52.3973 28.7078 51.9773 28.9546 51.5363C29.2014 51.1005 30.3406 48.5962 30.7187 47.2941C31.0967 45.9921 30.7344 46.0971 31.1754 45.1468C31.5849 44.2543 32.8817 42.4902 32.8345 41.96C32.7872 41.4297 32.4985 40.6212 32.0312 40.3482C31.8054 40.2117 31.4537 39.8179 31.0442 39.2614C30.6294 39.2824 29.9784 39.4451 29.9049 38.8886C29.7999 38.1274 28.1408 35.287 28.1408 35.287C28.1408 35.287 25.9935 36.4106 25.5735 37.0616C25.374 37.3661 25.185 37.2296 24.66 37.1403C24.5235 37.1141 24.408 37.0826 24.3082 37.0511C24.03 37.2243 23.7989 37.3713 23.6362 37.4711C22.9904 37.8596 22.0559 38.0276 21.2684 38.7364C20.4808 39.4504 18.8638 40.3692 18.4595 40.5109C18.05 40.6527 17.462 40.4217 17.063 40.4269C16.664 40.4269 15.635 39.9492 15.3409 39.3664C15.0469 38.7836 14.2962 38.1694 13.2251 36.8463C12.1226 35.4813 11.8811 35.497 11.7446 35.3868C11.6081 35.2765 10.7786 35.0718 10.6211 35.1768C10.4636 35.2818 10.3376 35.2608 10.3008 35.1663C10.264 35.0718 9.01451 34.2002 7.34496 34.3787C6.15318 34.5047 5.85392 33.985 5.85917 33.5492C5.85917 33.04 7.27146 31.7799 8.20074 31.8167C9.13002 31.8587 10.3533 31.9794 10.6158 31.9689C10.9781 31.9532 11.6081 31.6592 11.6501 31.6224C11.6868 31.5909 11.9021 31.3442 11.9703 31.3232C12.0333 31.3022 12.1384 31.3232 12.1489 31.3862C12.1594 31.4439 12.1804 31.5332 12.2224 31.5384C12.2591 31.5437 12.4061 31.5594 12.4586 31.5069C12.5059 31.4544 12.5321 31.3389 12.6056 31.3127C12.6791 31.2864 13.0624 31.3704 13.0886 31.4544C13.1149 31.5384 13.1254 31.6067 13.1936 31.6697C13.2619 31.7327 13.4666 31.8377 13.5559 32.3942C13.6556 33.04 13.3459 33.586 13.3774 33.6227C13.4141 33.6595 13.7081 33.7435 14.3749 33.985C15.0417 34.2265 15.6822 34.4785 16.307 34.7883C17.0157 35.14 17.5985 36.5838 17.5985 36.5838C17.5985 36.5838 18.4753 35.7753 19.0213 35.3448C19.4256 35.0193 20.1816 34.111 20.5334 33.6752C20.5334 33.6752 20.5281 33.6647 20.5229 33.6647C20.4073 33.5177 20.3496 33.3602 20.6909 33.0767C20.9324 32.8772 21.8406 31.9427 22.5179 31.2497C22.8697 30.8506 23.2687 30.4201 23.6992 29.9739C24.156 29.4121 24.7125 28.6928 24.9067 28.5038C25.1535 28.2623 25.6575 27.9736 25.7888 27.9001C25.7993 27.8896 25.8098 27.8791 25.8203 27.8686C25.7993 27.8318 25.7415 27.7005 25.7415 27.564C25.7415 27.144 26.2508 26.8238 26.865 26.283C26.9648 26.1938 27.054 26.1045 27.1328 26.01C27.264 25.716 27.3428 25.4797 27.5003 25.2225C27.9623 24.4665 27.7628 23.1382 27.4531 22.0251C27.1433 20.9121 27.1065 19.8621 27.1065 19.8621C27.0855 19.8621 27.054 19.8568 27.0173 19.8516C26.8073 19.9566 26.5658 20.0353 26.3348 20.0301C25.71 20.0143 25.563 20.1928 25.1482 20.2978C24.7335 20.4028 24.7177 20.3136 24.6757 20.2191C24.66 20.1876 24.66 20.1193 24.6547 20.0301C24.261 20.1508 23.8462 20.3293 23.4787 20.6023C22.2712 21.5054 21.5099 21.5894 20.9954 21.7206C20.4861 21.8519 19.7091 22.1301 18.9268 22.3086C18.1393 22.4871 16.1495 22.7969 15.1729 23.1277C14.1964 23.4584 14.0704 23.7157 14.0704 23.7157C13.4194 24.2617 13.0729 24.0044 12.7369 24.2407C12.4009 24.477 12.2539 24.5032 12.2539 24.5032C12.1804 24.7972 12.0071 24.8392 12.0071 24.8392C12.1226 24.9547 12.0911 25.1122 12.0911 25.1122C12.1279 25.38 11.7026 25.254 11.7026 25.254L11.6868 25.359C11.6973 25.6005 11.4926 25.569 11.4926 25.569C11.4558 25.5637 11.3561 25.527 11.2773 25.422C11.1986 25.3117 11.0936 25.3065 10.9203 25.1752C10.7471 25.044 10.7523 24.7657 10.7523 24.7657L10.6211 24.372C10.4898 23.9782 10.4426 23.8259 10.6106 23.5687C10.7733 23.3167 10.9676 22.9492 10.9676 22.9492C11.3561 22.0566 11.5136 22.4661 11.9703 22.3716C12.4271 22.2771 12.8681 22.3559 13.4561 22.2036C14.0494 22.0514 15.1414 21.5579 16.5432 21.0066C17.945 20.4501 20.4021 19.4158 20.4021 19.4158C21.6621 18.7753 22.0244 19.2005 22.7069 18.6808C23.3947 18.161 24.471 17.5257 25.143 17.237C25.815 16.943 26.1668 16.0872 27.2745 15.7722C27.8363 15.6147 28.2038 15.4939 28.4348 15.4152C28.6763 15.2472 29.0019 15.0844 29.3326 14.9794C29.8156 14.8219 30.1464 14.7064 30.4614 14.5122C30.7764 14.3179 31.1702 14.2444 31.2437 14.2024C31.3172 14.1657 31.7372 13.8559 31.7372 13.8559C31.9629 13.7981 32.1414 13.8979 32.2359 13.9609C32.3987 13.7246 32.5142 13.4149 32.5142 13.4149C32.3567 12.8059 32.5142 11.6246 32.5142 11.6246C32.5142 11.6246 32.4197 11.7138 32.2884 11.5143C32.1152 11.2413 32.1834 11.0103 32.1834 11.0103C32.1992 10.4065 32.0049 10.6323 32.1887 9.97078C32.3672 9.31976 32.5982 9.75552 32.5982 9.75552L32.6297 9.59802C32.6297 9.59802 32.635 9.57177 32.6402 9.56126C32.6455 9.45626 32.6612 9.34076 32.6822 9.2095C32.761 8.77899 32.8817 8.11747 33.2597 7.62921C32.9027 7.47695 32.4932 7.71321 32.4092 8.37473C32.2989 9.24626 31.3014 9.44051 30.7974 9.55601C30.2881 9.67152 29.9311 10.354 29.9311 10.354C29.9311 10.354 30.0781 9.49301 30.7869 9.34076C31.8894 9.1045 31.6059 8.25398 31.6059 8.25398C30.5926 9.14125 29.6791 9.27776 29.2119 9.22001C28.1041 9.08875 27.7051 8.41673 27.7051 8.41673C28.4033 8.99425 29.4219 8.54273 29.4219 8.54273C27.9833 8.60574 27.4006 7.41395 27.306 7.20395C27.3796 7.3562 27.7418 7.94422 29.0071 7.90747C29.6529 7.89172 30.0204 7.63971 30.2934 7.29845C30.2671 7.29845 30.2514 7.3037 30.2514 7.3037C29.5269 7.41395 28.9493 6.20642 28.9493 6.20642C28.9493 6.20642 29.1594 6.56343 29.8419 6.93619C30.5244 7.30895 30.6977 6.54768 31.0337 6.07516C31.0757 6.01741 31.1229 5.96491 31.1754 5.91766C31.2384 5.84416 31.3119 5.7759 31.3907 5.71815C31.3907 5.71815 31.4169 5.6919 31.4642 5.6604L15.8712 5.67615C14.7582 5.67615 13.5139 6.55818 13.1096 7.62921L3.50185 36.5891C3.09759 37.6601 3.5491 39.0251 4.49938 39.6236L27.3323 54.5026C27.2168 54.2873 27.2378 54.1088 27.2378 54.1088Z" fill="url(#paint1_linear_535_2)"/>
<path id="Vector_6" d="M33.6955 5.7129C33.6955 5.7129 33.727 5.7444 33.7427 5.76015V5.65515H33.6377C33.6745 5.68665 33.6955 5.70765 33.6955 5.70765V5.7129Z" fill="url(#paint2_linear_535_2)"/>
<path id="Vector_7" d="M33.6955 5.7129C33.6955 5.7129 33.727 5.7444 33.7427 5.76015V5.65515H33.6377C33.6745 5.68665 33.6955 5.70765 33.6955 5.70765V5.7129Z" fill="url(#paint3_linear_535_2)"/>
</g>
<path id="Vector_8" d="M23.1322 51.6097C25.0065 51.6307 26.6603 50.2709 26.9543 48.3651C27.2746 46.2756 25.8413 44.3225 23.7517 44.0023C21.6621 43.682 19.7091 45.1153 19.3888 47.2049C19.2681 48.0081 19.4046 48.7904 19.7353 49.4677C20.4599 50.7697 21.6306 51.426 23.1322 51.6097Z" fill="white"/>
<g id="Group_3">
<path id="Vector_9" d="M51.693 29.2073L52.0238 27.8895H49.4827L49.1467 29.2073H49.7347L48.3487 32.9402L48.7057 27.8895H47.1989L45.0148 32.9402L45.4926 29.2073H46.0281L46.3641 27.8895H43.8178L43.487 29.2073H43.8965L43.487 34.2317H45.6133L47.3249 30.3308L47.0624 34.2317H49.2202L51.2783 29.2073H51.693Z" fill="white"/>
<path id="Vector_10" d="M55.8564 31.2286C55.8564 30.4201 55.1739 30.3991 54.5806 30.3939H53.4203L53.7196 29.2073H54.7066L54.5701 29.7533H56.0979L56.5652 27.8843H53.7983C53.3836 27.8948 52.8533 27.9 52.4228 28.3673C52.1708 28.635 52.0815 28.9448 51.9923 29.2493L51.7403 30.2626C51.7035 30.4359 51.6668 30.6039 51.6668 30.7824C51.6668 31.6171 52.3755 31.6171 52.8691 31.6276H54.1029L53.7773 32.9034H52.7903L52.9426 32.2997H51.3045L50.8268 34.2212H53.6146C54.0293 34.2212 54.5754 34.2212 55.0059 33.8065C55.1844 33.6332 55.3839 33.3024 55.4626 32.9979L55.7041 32.0634C55.7934 31.6854 55.8459 31.4596 55.8459 31.2181L55.8564 31.2286Z" fill="white"/>
<path id="Vector_11" d="M58.891 32.9139H58.0037L58.9277 29.2073H59.3425L59.6733 27.8895H57.1217L56.7909 29.2073H57.1952L56.2764 32.9139H55.8616L55.5309 34.2317H60.088L60.7338 31.8061H59.2007L58.891 32.9139Z" fill="white"/>
<path id="Vector_12" d="M41.4867 27.8895L40.5732 31.7589L39.7384 27.8895H37.7119L37.3811 29.2073H37.7854L36.8666 32.9139H36.4623L36.1316 34.2317H38.0636L38.9456 30.5304L39.8172 34.2317H41.4395L42.6943 29.2073H43.088L43.4188 27.8895H41.4867Z" fill="white"/>
</g>
<path id="Vector_13" d="M31.4327 59.1017L31.417 59.0912L31.4012 59.0807L3.62791 40.9887C2.04236 39.9911 1.32309 37.8333 1.97411 36.0588L11.5871 7.11466L11.5976 7.08316L11.6081 7.05166C12.2539 5.34536 14.0915 4.05382 15.8818 4.05382L52.0553 4.01707C53.1579 4.01707 54.2814 4.50533 55.1319 5.28235C55.7462 4.23757 55.9772 3.15079 56.1032 2.37902C54.8432 1.33949 53.2419 0.719971 51.5986 0.719971L16.3333 0.756722C13.5244 0.756722 10.7471 2.67303 9.73384 5.30336L0.420063 34.8302C-0.0262006 35.98 -0.104953 37.2243 0.126054 38.4161C0.351811 39.8336 1.06058 41.1672 2.14736 42.1122C2.45187 42.3957 2.78263 42.6477 3.13964 42.863L30.1622 62.0628C30.976 62.5563 31.942 62.8871 32.9605 63.0236C33.622 61.9735 34.0158 60.8867 34.1943 59.7895C34.1366 59.7895 34.0788 59.7947 34.0158 59.7947C33.0603 59.7947 32.1415 59.548 31.4275 59.1069L31.4327 59.1017Z" fill="#BFC5C8"/>
<path id="Vector_14" d="M52.0605 5.63939C53.1736 5.63939 54.4179 6.51616 54.8274 7.58719L64.5034 36.526C64.9129 37.5971 64.4614 38.9621 63.5111 39.5554L35.7641 57.7262C35.2863 58.0254 34.6563 58.1724 34.0263 58.1724C33.3962 58.1724 32.7715 58.0254 32.2937 57.7262L4.50464 39.6236C3.54911 39.0304 3.0976 37.6653 3.50711 36.589L13.1201 7.6292C13.5244 6.55816 14.7687 5.67614 15.8817 5.67614L52.0553 5.63939M52.0553 4.02234L15.8817 4.05909C14.0862 4.05909 12.2486 5.35063 11.6081 7.05693L11.5976 7.08843L11.5871 7.11993L1.97406 36.0535C1.32304 37.8281 2.04231 39.9859 3.62786 40.9834L31.4012 59.0807L31.4169 59.0912L31.4327 59.1017C32.1467 59.548 33.0655 59.7895 34.021 59.7895C34.9765 59.7895 35.9006 59.5427 36.6198 59.0965L36.6356 59.086L36.6513 59.0755L64.3879 40.9152C65.9682 39.9124 66.6875 37.7598 66.0312 35.98L56.3604 7.06743L56.3499 7.03593L56.3394 7.00443C55.6936 5.29813 53.8508 4.01709 52.0605 4.01709L52.0553 4.02234Z" fill="white"/>
<path id="Vector_15" d="M50.1337 11.4775C49.7032 11.5405 49.0574 11.7715 49.173 11.2255C49.2885 10.6847 49.7295 10.2752 50.0025 9.92344C50.2755 9.57168 50.5642 9.05717 50.3122 8.96266C50.1862 8.91541 49.9395 9.19892 49.7977 9.41943C49.6612 9.63993 49.593 9.57168 49.2832 9.97069C49.0627 10.249 48.9944 10.2542 48.9787 10.2122C48.9787 10.207 49.194 9.75544 49.3725 9.49818C49.551 9.24617 49.845 8.40615 49.866 8.23814C49.8975 8.00189 49.5615 7.94938 49.3672 8.3694C49.173 8.78941 49.11 9.02567 48.9104 9.25667C48.7057 9.48768 48.5797 9.79219 48.4852 9.82894C48.4537 9.83944 48.8789 8.95216 48.9997 8.6319C49.1204 8.31165 49.278 7.83913 49.0627 7.76563C48.8317 7.68163 48.7057 8.3169 48.5797 8.5584C48.4484 8.80516 48.4379 8.78941 48.3224 8.99942C48.2069 9.20942 48.1439 9.39318 47.9812 9.69244C47.8237 9.98119 47.7187 9.93919 47.7187 9.93919C47.7187 9.93919 47.7082 9.46668 47.7817 9.19367C47.8447 8.95741 47.9497 8.28014 47.8132 8.24339C47.6662 8.20139 47.5822 8.35365 47.4667 8.83141C47.3564 9.30917 47.4089 9.20942 47.2566 9.70819C47.1044 10.207 46.9731 10.6007 46.6844 10.7477C46.3956 10.8947 45.4191 11.4092 43.886 11.7767C42.353 12.1443 42.4318 12.1915 41.282 12.9213C40.1322 13.6511 39.3972 13.6826 38.8301 13.7613C38.2894 13.8348 37.2446 13.8033 36.3048 14.1393C36.2313 14.0711 36.1631 14.0133 36.1106 14.0133C36.0528 14.0133 35.9268 14.0816 35.8008 14.1656C35.8586 14.0553 35.9373 13.9136 36.0318 13.7141C36.2838 13.1943 36.4413 13.0473 36.4571 12.9055C36.4571 12.9055 36.6356 12.9318 36.7616 12.8058C36.8876 12.6798 36.9978 12.4068 37.1973 12.1705C37.3969 11.9343 37.6646 11.4302 37.6226 11.215C37.5806 10.9997 37.2866 11.0942 37.2866 11.0942C37.2866 11.0942 37.2971 11.068 37.3076 11.026C37.3916 10.9105 37.4704 10.7792 37.5439 10.6217C38.3524 8.89966 37.7066 8.32215 37.7066 8.32215C37.0188 7.25111 35.7956 6.85735 35.3755 6.77335C34.945 6.6841 34.5618 6.82585 34.1785 6.99911C34.1628 6.92035 34.147 6.8416 34.147 6.76285C34.1313 6.34809 33.9843 5.97008 33.6955 5.70757C33.6955 5.70757 33.454 5.43456 32.9185 5.35581C31.9209 5.20355 31.4117 5.71807 31.4117 5.71807C31.3329 5.78107 31.2647 5.84932 31.1964 5.91757C31.1439 5.96483 31.0967 6.01733 31.0547 6.07508C30.7187 6.54759 30.5454 7.30887 29.8629 6.9361C29.1804 6.56334 28.9704 6.20633 28.9704 6.20633C28.9704 6.20633 29.5479 7.40862 30.2724 7.30362C30.2724 7.30362 30.2881 7.30362 30.3144 7.29836C30.0414 7.63437 29.6686 7.88638 29.0281 7.90738C27.7628 7.94413 27.3953 7.35087 27.3271 7.20386C27.4216 7.41387 28.0043 8.60565 29.4429 8.54265C29.4429 8.54265 28.4243 8.99417 27.7261 8.41665C27.7261 8.41665 28.1251 9.08867 29.2329 9.21992C29.7001 9.27767 30.6137 9.14117 31.6269 8.25389C31.6269 8.25389 31.9104 9.10442 30.8079 9.34068C30.0991 9.49293 29.9521 10.354 29.9521 10.354C29.9521 10.354 30.3091 9.67143 30.8184 9.55593C31.3224 9.44043 32.32 9.25142 32.4302 8.37465C32.5142 7.71313 32.929 7.47687 33.2807 7.62912C32.9027 8.11739 32.7767 8.77891 32.7032 9.20942C32.677 9.34068 32.6665 9.46143 32.6612 9.56118C32.6612 9.57168 32.656 9.58743 32.6507 9.59793L32.6192 9.75544C32.6192 9.75544 32.3882 9.32493 32.2097 9.97069C32.0259 10.6322 32.2202 10.4065 32.2044 11.0102C32.2044 11.0102 32.1362 11.2465 32.3095 11.5142C32.4407 11.7137 32.5352 11.6245 32.5352 11.6245C32.5352 11.6245 32.383 12.8058 32.5352 13.4148C32.5352 13.4148 32.4197 13.7246 32.2569 13.9608C32.1624 13.8926 31.9839 13.7981 31.7582 13.8558C31.7582 13.8558 31.3382 14.1656 31.2647 14.2023C31.1912 14.2391 30.7974 14.3126 30.4824 14.5121C30.1674 14.7063 29.8366 14.8218 29.3536 14.9793C29.0229 15.0843 28.6973 15.2471 28.4558 15.4151C28.2301 15.4939 27.8573 15.6146 27.2956 15.7721C26.1878 16.0819 25.836 16.9429 25.164 17.2369C24.492 17.5309 23.4157 18.1609 22.7279 18.6807C22.0401 19.2005 21.6831 18.77 20.4231 19.4157C20.4231 19.4157 17.966 20.45 16.5642 21.0065C15.1624 21.563 14.0652 22.0566 13.4771 22.2036C12.8839 22.3558 12.4481 22.2771 11.9914 22.3716C11.5346 22.4661 11.3771 22.0566 10.9886 22.9491C10.9886 22.9491 10.7996 23.3166 10.6316 23.5686C10.4688 23.8206 10.5108 23.9729 10.6421 24.3719L10.7733 24.7656C10.7733 24.7656 10.7733 25.0439 10.9413 25.1751C11.1146 25.3064 11.2196 25.3116 11.2983 25.4219C11.3771 25.5322 11.4768 25.5637 11.5136 25.5689C11.5136 25.5689 11.7183 25.6004 11.7078 25.3589L11.7236 25.2539C11.7236 25.2539 12.1489 25.3746 12.1121 25.1121C12.1121 25.1121 12.1436 24.9546 12.0281 24.8391C12.0281 24.8391 12.1961 24.7971 12.2749 24.5031C12.2749 24.5031 12.4219 24.4769 12.7579 24.2406C13.0939 24.0044 13.4404 24.2564 14.0914 23.7156C14.0914 23.7156 14.2174 23.4583 15.1939 23.1276C16.1652 22.7968 18.1603 22.4871 18.9478 22.3086C19.7353 22.1301 20.5071 21.857 21.0164 21.7205C21.5256 21.5893 22.2922 21.5 23.4997 20.6023C23.8672 20.3292 24.2767 20.1455 24.6757 20.03C24.6757 20.114 24.6757 20.1875 24.6967 20.219C24.7387 20.3135 24.7545 20.3975 25.1692 20.2977C25.584 20.1927 25.731 20.0142 26.3558 20.03C26.5868 20.0352 26.823 19.9565 27.0383 19.8515C27.075 19.8515 27.1065 19.8567 27.1275 19.862C27.1275 19.862 27.1643 20.9068 27.4741 22.025C27.7838 23.1381 27.9833 24.4664 27.5213 25.2224C27.3638 25.4797 27.2851 25.7212 27.1538 26.0099C27.0698 26.1044 26.9805 26.1989 26.886 26.2829C26.277 26.8237 25.7678 27.144 25.7625 27.564C25.7625 27.7005 25.8203 27.8317 25.8413 27.8685C25.8308 27.879 25.8203 27.8895 25.8098 27.9C25.6733 27.9787 25.1692 28.2675 24.9277 28.5037C24.7282 28.6927 24.177 29.412 23.7202 29.9738C23.2897 30.42 22.8907 30.8506 22.5389 31.2496C21.8616 31.9426 20.9534 32.8771 20.7119 33.0766C20.3706 33.3601 20.4284 33.5176 20.5439 33.6646C20.5439 33.6646 20.5491 33.6751 20.5544 33.6751C20.2026 34.1109 19.4466 35.0192 19.0423 35.3447C18.5015 35.7752 17.6195 36.5837 17.6195 36.5837C17.6195 36.5837 17.0368 35.1399 16.328 34.7882C15.7032 34.4784 15.0627 34.2264 14.3959 33.9849C13.7292 33.7434 13.4351 33.6594 13.3984 33.6226C13.3669 33.5859 13.6767 33.0399 13.5769 32.3941C13.4876 31.8376 13.2829 31.7273 13.2146 31.6696C13.1464 31.6118 13.1359 31.5383 13.1096 31.4543C13.0834 31.3703 12.7001 31.2811 12.6266 31.3126C12.5531 31.3388 12.5269 31.4543 12.4796 31.5068C12.4324 31.5593 12.2854 31.5488 12.2434 31.5383C12.2014 31.5331 12.1804 31.4491 12.1699 31.3861C12.1594 31.3283 12.0544 31.3073 11.9914 31.3231C11.9231 31.3441 11.7078 31.5856 11.6711 31.6223C11.6343 31.6538 10.9991 31.9478 10.6368 31.9688C10.3743 31.9793 9.15102 31.8586 8.22174 31.8166C7.29246 31.7746 5.88542 33.0346 5.88017 33.5491C5.88017 33.9849 6.17418 34.5099 7.36597 34.3787C9.03552 34.2002 10.2851 35.0717 10.3218 35.1662C10.3586 35.2607 10.4846 35.2817 10.6421 35.1767C10.7996 35.0717 11.6291 35.2764 11.7656 35.3867C11.9021 35.4969 12.1436 35.4812 13.2461 36.8462C14.3119 38.164 15.0679 38.7783 15.362 39.3663C15.656 39.9491 16.685 40.4268 17.084 40.4268C17.483 40.4268 18.0763 40.6578 18.4805 40.5108C18.8848 40.3691 20.5019 39.4503 21.2894 38.7363C22.0769 38.0223 23.0167 37.8543 23.6572 37.471C23.82 37.3713 24.0562 37.2242 24.3292 37.051C24.429 37.0825 24.5445 37.114 24.681 37.1402C25.206 37.2295 25.4002 37.366 25.5945 37.0615C26.0145 36.4105 28.1618 35.2869 28.1618 35.2869C28.1618 35.2869 29.8209 38.122 29.9259 38.8885C30.0046 39.4503 30.6557 39.2823 31.0652 39.2613C31.4747 39.8178 31.8264 40.2116 32.0522 40.3481C32.5142 40.6211 32.803 41.4296 32.8555 41.9599C32.9027 42.4902 31.6112 44.2542 31.1964 45.1467C30.7554 46.097 31.1177 45.992 30.7397 47.294C30.3616 48.5961 29.2171 51.1004 28.9756 51.5362C28.7288 51.9719 28.3088 52.3972 28.3088 52.3972C28.3088 52.3972 28.0201 52.4969 27.9361 52.686C27.8573 52.8592 27.3218 53.5102 27.2588 54.1087C27.2588 54.1087 27.201 54.639 27.8783 54.975C28.5556 55.311 29.1121 55.2795 29.1121 55.2795C29.2539 55.29 29.4009 55.2953 29.5531 55.3005C30.9287 55.311 32.1729 56.2508 32.53 56.4398C32.8922 56.6341 34.7193 56.8651 35.0605 56.4766C35.596 55.8675 34.7823 55.332 33.4487 54.4973C32.5615 53.9407 32.404 53.7255 32.1729 53.505C32.0942 53.421 31.9839 53.2897 31.9524 53.1847C31.8999 53.0167 31.8107 52.9642 31.7424 52.9537C31.7057 52.9485 31.6269 52.9905 31.5482 53.0272C31.0442 52.4392 32.2885 50.7801 32.7977 49.9034C33.3437 48.9688 34.6773 47.0683 35.3178 45.5352C35.9531 43.9969 35.7746 43.9444 36.1578 43.5297C36.5358 43.1149 37.1973 42.0859 36.7931 40.9886C36.3888 39.8966 36.3573 39.1353 36.3888 38.6628C36.4098 38.3215 36.2366 37.4658 36.1106 36.8935C36.1526 36.862 36.1893 36.8357 36.2103 36.8252C36.3153 36.7412 35.1288 34.2684 34.651 33.5806C34.5828 33.4546 34.5198 33.3391 34.4725 33.2551C34.4725 33.2499 34.462 33.2394 34.462 33.2341C34.2468 32.7354 33.958 31.8218 33.8792 31.5646C33.8635 31.4911 33.8477 31.4176 33.8372 31.3493C33.8372 31.1026 34.0945 31.2653 33.9895 30.8611C33.8477 30.315 33.8687 29.727 33.9265 29.2493C34.0893 28.2412 34.462 26.8237 35.4228 25.3799C36.1788 24.2511 36.0476 23.6263 36.3153 22.8966C36.5778 22.1668 37.8221 22.1511 36.9768 19.253C36.9768 19.253 36.8981 18.7122 36.9506 18.2764C37.1238 17.3524 37.5229 17.2422 38.0321 16.7171C38.1896 16.5544 38.4364 16.4021 38.7356 16.2499C38.9876 16.1659 39.3919 16.0451 39.6964 16.0031C40.1794 15.9454 40.3422 15.9559 40.4577 15.8719C40.4892 15.8456 40.4419 15.7249 40.3999 15.6041C41.0352 15.3941 41.639 15.2103 42.0117 15.0581C42.9515 14.6853 42.9568 14.8166 43.5185 14.3861C44.4268 13.6826 45.2458 13.2258 46.2434 12.5748C47.2409 11.9238 47.5822 12.496 48.2542 12.4068C48.9262 12.3175 49.3147 12.1233 49.9132 12.1705C50.5117 12.2178 50.8635 11.8765 50.8477 11.7347C50.8267 11.5562 50.5852 11.4302 50.1547 11.4932L50.1337 11.4775Z" fill="white"/>
</g>
<defs>
<linearGradient id="paint0_linear_535_2" x1="46.5059" y1="64.7561" x2="46.5059" y2="1.38678" gradientUnits="userSpaceOnUse">
<stop stop-color="#0522FF"/>
<stop offset="1" stop-color="#001E60"/>
</linearGradient>
<linearGradient id="paint1_linear_535_2" x1="18.3125" y1="50.187" x2="18.3125" y2="-19.6138" gradientUnits="userSpaceOnUse">
<stop stop-color="#FF2D57"/>
<stop offset="0.7" stop-color="#CE343A"/>
</linearGradient>
<linearGradient id="paint2_linear_535_2" x1="33.6902" y1="48.0713" x2="33.6902" y2="-15.2983" gradientUnits="userSpaceOnUse">
<stop offset="0.09" stop-color="#0421DE"/>
<stop offset="1" stop-color="#00194C"/>
</linearGradient>
<linearGradient id="paint3_linear_535_2" x1="33.6902" y1="44.8529" x2="33.6902" y2="-24.9481" gradientUnits="userSpaceOnUse">
<stop offset="0.09" stop-color="#EE1B4B"/>
<stop offset="1" stop-color="#88002B"/>
</linearGradient>
</defs>
</svg>
